<svg id="eyebrows" xmlns="http://www.w3.org/2000/svg" viewBox="0 0 405.41 358.26"><defs><style>.cls-1{fill:#fff;}</style></defs><title>eyebrows</title><path class="cls-1" d="M69.37,182.89s16.14,4.78,154.26-60.39c0,1.2,119.58-61.58,222.42,87.89,0,1.2,8.37,3,8.37,3S382.07,47.17,260.69,80c0-.6-132.73,29.3-187.14,56.2C74.15,136.85,20.94,158.37,69.37,182.89Z" transform="translate(-49 -75.74)"/><path class="cls-1" d="M107,303.06s63.57-101.38,230.38-99C337.42,205.27,192.53,160.76,107,303.06Z" transform="translate(-49 -75.74)"/><path class="cls-1" d="M100.46,338.34s134,115.1,275.63-28.1c1.79,1.79-35.28,57.4,46,19.13,1.2,0-29.89,25.11-70,25.71,0,0,13.75,16.14,61.58,1.79,1.2,1.2-44.24,31.69-77.13,10.76.6.6-8.37,18.53,32.88,20.93,0,1.2-28.7,9.57-57.4-16.14.6,0-17.94,14.35,21.52,35.87-.6,0-37.67-10.16-45.44-26.31,0,0-13.15,7.17,22.72,36.47.6,1.2-45.44-28.7-45.44-28.7L286.4,434l-37.67-39.46L261.89,434S238,423.24,227.21,402.31c1.2.6-6,17.34,6,30.49.6,0-24.51-10.76-24.51-32.29.6,1.2-4.19,32.88-4.19,32.88l-10.76-39.46-8.37,28.7L174.6,386.77l-14.35,23.32s4.19-27.5,1.2-32.29c1.2,1.79-25.11,13.75-25.11,13.75l4.78-25.71-25.71,6s11.36-4.19,9.57-13.75C125.57,358.67,100.46,338.34,100.46,338.34Z" transform="translate(-49 -75.74)"/></svg>