<svg id="Слой_1" data-name="Слой 1" xmlns="http://www.w3.org/2000/svg" viewBox="0 0 511 362.51"><defs><style>.cls-1{fill:#fff;}</style></defs><title>haircut</title><path class="cls-1" d="M158.92,104.48c-10.06.78-18.75,1.83-28.74,2.31-42.81,1.95-85.76-.56-129.17-6a491.66,491.66,0,0,0,130,19.13c10.21.2,25.13-.31,35.46-.71Z" transform="translate(-1 -72.63)"/><path class="cls-1" d="M170,132c-10.06.78-18.75,1.83-28.74,2.31-42.81,1.95-85.76-.56-129.17-6a491.66,491.66,0,0,0,130,19.13c10.21.2,25.13-.31,35.46-.71Z" transform="translate(-1 -72.63)"/><path class="cls-1" d="M180,160c-10.06.78-18.75,1.83-28.74,2.31-42.81,1.95-85.76-.56-129.17-6a491.66,491.66,0,0,0,130,19.13c10.21.2,25.13-.31,35.46-.71Z" transform="translate(-1 -72.63)"/><path class="cls-1" d="M490.91,180.72s-93.07-68.84-283.47-63.17l-8-14.51C259.83,102,392.69,116.12,490.91,180.72Z" transform="translate(-1 -72.63)"/><path class="cls-1" d="M502,208.26S409,139.42,218.56,145.09l-8-14.51C271,129.54,403.81,143.66,502,208.26Z" transform="translate(-1 -72.63)"/><path class="cls-1" d="M512,236.21S418.93,167.37,228.53,173l-8-14.51C280.92,157.49,413.78,171.61,512,236.21Z" transform="translate(-1 -72.63)"/><path class="cls-1" d="M359.22,356.21c-11.23-19.49-29.39-27.55-50.08-25.3-1.88.24-7.33-.29-10.73-2.53-6.48-4.58-20.06-29.39-30.8-51.75-6.24-.83-12.46-1.88-18.77-2.85,10.22,9.45,23.74,26.7,39.78,58.34,2.38,4.57.6,10.46-1,13.42-8.93,16.28-9.67,33.89.28,51.51,13.39,23.22,40.16,32.8,59.86,21.57S372.6,379.22,359.22,356.21ZM344.5,412.81c-16.38,9.5-39.15.9-50.6-19-8-13.68-8.69-29.8-2.2-41.85a29.34,29.34,0,0,1,11.11-11.5c7.88-4.54,17.29-5.12,26.78-1.73a47.11,47.11,0,0,1,24,20.73c7.57,13.9,8.48,29.8,2,41.85A29.34,29.34,0,0,1,344.5,412.81Z" transform="translate(-1 -72.63)"/><path class="cls-1" d="M357.92,407.72s2.53,25.06,27.47,20c0,0,17.25-3.36,8.45,4.46,0,0-33.74,12.9-44.62-15Z" transform="translate(-1 -72.63)"/><path class="cls-1" d="M167.47,72.63,231.8,264.57l12.61,2.71,49.52,76.61,7.66-5Zm73.87,185.91a8.06,8.06,0,1,1,9.58-6.19A8.06,8.06,0,0,1,241.34,258.54Z" transform="translate(-1 -72.63)"/><path class="cls-1" d="M138.33,418.61c19.7,11.24,46.46,1.66,59.86-21.57,9.94-17.63,9.21-35.23.28-51.51-1.62-3-3.4-8.86-1-13.42,16-31.64,29.56-48.88,39.78-58.34-6.31,1-12.53,2-18.77,2.85-10.74,22.37-24.32,47.18-30.8,51.75-3.39,2.24-8.84,2.78-10.73,2.53-20.69-2.25-38.85,5.81-50.08,25.3C113.47,379.22,118.63,407.38,138.33,418.61Zm-7.86-17.31c-6.49-12.05-5.58-28,2-41.85a47.11,47.11,0,0,1,24-20.73c9.48-3.39,18.9-2.81,26.78,1.73A29.34,29.34,0,0,1,194.37,352c6.49,12.05,5.79,28.17-2.2,41.85-11.45,19.9-34.22,28.51-50.6,19A29.34,29.34,0,0,1,130.47,401.3Z" transform="translate(-1 -72.63)"/><path class="cls-1" d="M184.49,338.93l7.66,5,49.52-76.61,12.61-2.71L318.61,72.63Zm50.67-86.59a8.06,8.06,0,1,1,9.58,6.19A8.06,8.06,0,0,1,235.16,252.35Z" transform="translate(-1 -72.63)"/></svg>