<svg id="coloring" xmlns="http://www.w3.org/2000/svg" viewBox="0 0 292.22 361.44"><defs><style>.cls-1{fill:#fff;}.cls-2{fill:none;stroke:#fff;stroke-miterlimit:10;stroke-width:0.25px;}</style></defs><title>services</title><ellipse class="cls-1" cx="88.19" cy="250.9" rx="70.32" ry="8.71"/><ellipse class="cls-2" cx="88.19" cy="250.9" rx="88.06" ry="20.32"/><path class="cls-1" d="M115.28,341.73s84,31.64,173.29,0c0-.1-35.66,76-35.66,76s-55.56,22.63-106.28-.51Z" transform="translate(-113.74 -73)"/><path class="cls-1" d="M173,194.23l16.14,23.2h0l60.92,5,148.5,210s9.51,6.66,6.93-4.82c0,.47-144.44-212.71-144.44-212.71l14.29-57.5.18-.12L259.37,134.2Z" transform="translate(-113.74 -73)"/><path class="cls-1" d="M167.68,184.92l-40.79-43.81s-.66-15.54,13.89-9.41c.27.38,29,51.81,29,51.81Z" transform="translate(-113.74 -73)"/><path class="cls-1" d="M181.45,175.34l-40.79-43.81S140,116,154.54,122.13c.27.38,29,51.81,29,51.81Z" transform="translate(-113.74 -73)"/><path class="cls-1" d="M195.21,165.77,154.43,122s-.66-15.54,13.89-9.41c.27.38,29,51.81,29,51.81Z" transform="translate(-113.74 -73)"/><path class="cls-1" d="M209,156.19l-40.79-43.81s-.66-15.54,13.89-9.41c.27.38,29,51.81,29,51.81Z" transform="translate(-113.74 -73)"/><path class="cls-1" d="M222.62,146.71,181.84,102.9s-.66-15.54,13.89-9.41c.27.38,29,51.81,29,51.81Z" transform="translate(-113.74 -73)"/><path class="cls-1" d="M236.39,137.13,195.6,93.33s-.66-15.54,13.89-9.41c.27.38,29,51.81,29,51.81Z" transform="translate(-113.74 -73)"/><path class="cls-1" d="M250,127.64,209.24,83.84s-.66-15.54,13.89-9.41c.27.38,29,51.81,29,51.81Z" transform="translate(-113.74 -73)"/><rect class="cls-1" x="159.82" y="154.68" width="102.99" height="5.89" transform="translate(-165.91 75.87) rotate(-34.82)"/></svg>