<svg id="makeup" xmlns="http://www.w3.org/2000/svg" viewBox="0 0 213.96 362"><defs><style>.cls-1{fill:#fff;}</style></defs><title>makeup</title><path class="cls-1" d="M154.81,183.06l34.53.63-5.65,81.61,1.26,151.91s-12,25.79-24.48,0c0,.63-.47-151.6-.47-151.6Z" transform="translate(-145.16 -73)"/><path class="cls-1" d="M154.49,169.25l34.84.31s38.29-81-18.2-74.39C171.13,95.81,126.24,94.87,154.49,169.25Z" transform="translate(-145.16 -73)"/><polygon class="cls-1" points="82.26 34.47 83.76 305.01 108.55 305.01 111.55 34.47 82.26 34.47"/><path class="cls-1" d="M254,386.3H229.2s.51,41.07.51,40.42c12.87,18.25,24.39.65,24.39.65" transform="translate(-145.16 -73)"/><polygon class="cls-1" points="83.1 30.31 111.08 30.23 102.44 10.84 91.93 10.92 83.1 30.31"/><polygon class="cls-1" points="93.71 7.5 100.85 7.5 97.09 0 93.71 7.5"/><path class="cls-1" d="M291.86,297.21l67.25.63V419s.41,10.2-4.88,10c0,.16-55.59.16-55.59.16s-6.91.31-6.64-6.75C292,422.6,291.86,297.21,291.86,297.21Z" transform="translate(-145.16 -73)"/><rect class="cls-1" x="152.6" y="190.31" width="53.96" height="23.85"/><polygon class="cls-1" points="200.06 181.21 158.3 181.21 158.84 138.84 199.78 114.35 200.06 181.21"/></svg>