<svg id="nails" xmlns="http://www.w3.org/2000/svg" viewBox="0 0 337.77 367.25"><defs><style>.cls-1,.cls-2,.cls-4,.cls-5{fill:none;}.cls-1,.cls-2,.cls-3,.cls-4,.cls-5{stroke:#fff;stroke-miterlimit:10;}.cls-1{stroke-width:10px;}.cls-2{stroke-width:6px;}.cls-3{fill:#fff;}.cls-3,.cls-4{stroke-width:11px;}.cls-5{stroke-width:5px;}</style></defs><title>nails</title><path class="cls-1" d="M126,384.73" transform="translate(-121.65 -72.88)"/><path class="cls-1" d="M225.77,357.27H191.49c-16,0-29.16-5.32-29.16-20.48l.14-146.9c0-15.16,13.06-27.57,29-27.57h34.28c16,0,29,12.41,29,27.57l.14,146.9C254.93,352,241.73,357.27,225.77,357.27Z" transform="translate(-121.65 -72.88)"/><path class="cls-1" d="M254.84,231.79l.1,105c0,15.16-13.2,20.48-29.16,20.48H191.49c-16,0-29.16-5.32-29.16-20.48l.1-104.86c-21.57,14.09-35.78,37.69-35.78,64.29l.51,138.9H290.94l-.09-138.9C290.84,269.53,276.53,245.86,254.84,231.79Z" transform="translate(-121.65 -72.88)"/><path class="cls-2" d="M255.8,331.17c1.54,29.47-19.88,25.45-45.92,25.45S161,362.39,162.3,331.17c.73-18.07,20.93-32.74,46.75-32.74S254.85,313.11,255.8,331.17Z" transform="translate(-121.65 -72.88)"/><path class="cls-3" d="M303,230.64,414.15,344.92a6.68,6.68,0,0,0,9.59,0l28.2-28.85a7.1,7.1,0,0,0,0-9.83L342.58,193.79C330.16,207.16,317.5,220.21,303,230.64Z" transform="translate(-121.65 -72.88)"/><path class="cls-4" d="M222.72,80.4l-28.2,28.85a7.1,7.1,0,0,0,0,9.83L303,230.64c14.49-10.43,27.16-23.48,39.57-36.85L232.31,80.41A6.68,6.68,0,0,0,222.72,80.4Z" transform="translate(-121.65 -72.88)"/><line class="cls-5" x1="115.85" y1="10.55" x2="118.8" y2="97.36"/><line class="cls-5" x1="102.07" y1="2.48" x2="105.02" y2="78.18"/><line class="cls-5" x1="130.61" y1="23.67" x2="133.56" y2="110.48"/><line class="cls-5" x1="146.35" y1="39.82" x2="149.3" y2="126.63"/><line class="cls-5" x1="161.11" y1="54.96" x2="164.07" y2="141.77"/><line class="cls-5" x1="174.89" y1="70.1" x2="177.84" y2="156.91"/><line class="cls-5" x1="143.64" y1="40.57" x2="69.78" y2="40.57"/><line class="cls-5" x1="153.48" y1="55.71" x2="79.62" y2="55.71"/><line class="cls-5" x1="170.21" y1="70.85" x2="96.35" y2="70.85"/><line class="cls-5" x1="184.97" y1="87" x2="111.11" y2="87"/><line class="cls-5" x1="199.73" y1="101.13" x2="125.87" y2="101.13"/><line class="cls-5" x1="217.45" y1="114.25" x2="143.58" y2="114.25"/></svg>