<svg id="hairtreatment" xmlns="http://www.w3.org/2000/svg" viewBox="0 0 345.25 360.41"><defs><style>.cls-1{fill:#fff;}</style></defs><title>hairtreatment</title><path class="cls-1" d="M169.87,89.6c24-6,251.69-67.73,263.18,211.13C432.42,269.38,466.18,10.31,169.87,89.6Z" transform="translate(-88.68 -74.59)"/><path class="cls-1" d="M145.62,103.82s273-33.24,254.19,210.09c0,14-51.42,139-217,118.92,1.25,1.25,143.61.24,193.78-100.1C379.12,334,417.79,146.46,145.62,103.82Z" transform="translate(-88.68 -74.59)"/><path class="cls-1" d="M123.88,122.63" transform="translate(-88.68 -74.59)"/><path class="cls-1" d="M118,128.9s8.51-8,13.22-6.71c37.4,9.9,195.51,57.72,205.54,158.68,1.25,1.25,19.44,121.77-85.92,150.61,3.76,1.25,61.14-11.39,71.18-126.78C322.05,306,345,214.19,118,128.9Z" transform="translate(-88.68 -74.59)"/><path class="cls-1" d="M113.53,145s39.72,39.3,101.18,61.25c0,.63,149.67,45.75-17.14,227.62,0,0,127.83-153.31,19-215.08C216.59,220,151.47,206.75,113.53,145Z" transform="translate(-88.68 -74.59)"/><path class="cls-1" d="M111.12,145.63a75.05,75.05,0,0,0-11.45,41.79,81.21,81.21,0,0,0,3.88,21.69c2.73,8.88,6.27,18.25,3.82,27.61-2.1,8-7.13,15.39-10.34,23a139.06,139.06,0,0,0-8,24c-1.06,4.85,0,8.42,4.5,10.82,2.42,1.28,5.15,1.87,7.59,3.11,3.86,2,5.62,5.23,6.74,9.31,1.6,5.79,1.9,10.5,7.76,13.3,4,1.93,9.68,3.16,14.06,1.73a1.5,1.5,0,0,0-.8-2.89c-3.85.6-9.38,3.77-10.82,7.6-1.89,5,4.89,8.25,8.07,10.63,12,9,4.81,26.68,13.46,37.7,9.67,12.33,30.92,7.39,43.44,3.4,8.78-2.8,17.25-6.46,26-9.39,4.73-1.59,9.9-3.51,14.95-3.45s13.54,3.91,12.27,10.28c-.37,1.89,2.52,2.69,2.89.8,1-5.15-2.67-9.52-6.93-12-6.45-3.73-14.07-1.64-20.7.41-16.57,5.13-32.63,14.09-50.32,14.47-9,.2-18.5-1.85-21.83-11.3-2.14-6.06-2-12.66-3.14-18.92-1-5.35-3.06-10.27-7.41-13.74-2.85-2.27-9.7-5.07-6.84-9.33,1.41-2.11,5.3-3.89,7.74-4.27l-.8-2.89c-5.69,1.85-14.56-.87-16.57-6.67-2.1-6-2.15-12.78-8.15-16.55-2.67-1.68-5.81-2.31-8.63-3.68-5.73-2.79-3.63-7.95-2.22-12.93a160.48,160.48,0,0,1,11-28.28c3.95-7.89,7.58-15.24,6.7-24.31s-4.7-17.27-6.69-26a71.68,71.68,0,0,1,9.36-53.59c1-1.64-1.57-3.15-2.59-1.51Z" transform="translate(-88.68 -74.59)"/><path class="cls-1" d="M165.21,227.64a45.66,45.66,0,0,1-39.88,7.46c-3.11-.87-8-.76-4.9.1,15.1,4.21,34.68,6.11,47.31-3.23C170.31,230.08,167.81,225.72,165.21,227.64Z" transform="translate(-88.68 -74.59)"/><path class="cls-1" d="M158.35,201.29a43.7,43.7,0,0,0-41.16,9.36c-2.43,2.13,1.13,5.67,3.55,3.55,10-8.8,20.76-15.34,33.55-11.69C157.41,203.4,161.46,202.18,158.35,201.29Z" transform="translate(-88.68 -74.59)"/></svg>